<?xml version="1.0" encoding="UTF-8" standalone="no"?>
<svg
   width="9.4652767in"
   height="9.4583311in"
   viewBox="0 0 681.50005 680.99997"
   version="1.1"
   id="svg42"
   xmlns="http://www.w3.org/2000/svg"
   xmlns:svg="http://www.w3.org/2000/svg">
   <defs
      id="defs46" />
   <style>
      path {
      fill: #0f172a;
      }
      @media (prefers-color-scheme: dark) {
      path {
      fill: white;
      }
      }
   </style>
   <path
      id="Giraffe"
      d="m 416.5,0.5 h 41.66667 v 53.500002 h 50.66666 V 0.5 H 550.5 V 54.000002 H 693 V 165.28 L 550.5,205 V 693 H 422.79999 L 385.1,572.02 H 264.9 L 227.20001,693 H 99.500002 V 451.1 c 0,0 -25.680002,-0.08 -33.000002,0 -14.87,0.18 -23.83,12.88 -24,27.4 V 531 h -42 v -72 c 0.363447,-27.37769 20.532967,-49.80337 51,-50.14596 0,0 46.695302,0.02 61.0653,0 C 125.53103,386.40487 149.40231,376.56666 175.5,374.8 h 101.676 l -14.5,47.9 H 215.5 L 202,470.6 h 46.176 l -14.5,47.90001 h 46.676 L 294.764,470.6 h 46.2504 l -13.9864,47.90001 h 46.676 L 387.204,470.6 h 48.17601 l 13,-47.9 H 400.704 l 13.50001,-47.9 h 47.176 l 13,-47.9 h -46.676 l 13.5,-47.9 H 396.96 l -13.9864,47.9 H 338 L 410.5,95.000002 h -85 v -41 h 91 z m -107.324,422.2 14.412,-47.9 h 45.3992 l -13.9864,47.9 z"
   />
</svg>
